<?xml version="1.0" encoding="UTF-8" standalone="no" ?>
<!DOCTYPE svg PUBLIC "-//W3C//DTD SVG 1.1//EN" "http://www.w3.org/Graphics/SVG/1.1/DTD/svg11.dtd">
<svg xmlns="http://www.w3.org/2000/svg" xmlns:xlink="http://www.w3.org/1999/xlink" version="1.1" width="400" height="400" viewBox="0 0 400 400" xml:space="preserve">
<desc>Created with Fabric.js 3.6.2</desc>
<defs>
</defs>
<g transform="matrix(3.13 0 0 3.13 193.73 202.86)" id="Layer_6"  >
<path style="stroke: none; stroke-width: 1; stroke-dasharray: none; stroke-linecap: butt; stroke-dashoffset: 0; stroke-linejoin: miter; stroke-miterlimit: 4; fill: rgb(56,154,214); fill-rule: nonzero; opacity: 1;"  transform=" translate(-29.99, -32.92)" d="M 29.75 29.08 s -1.25 -1.5 -2.5 1.13 s -2 6.2 -0.32 6.89 s 7.25 -3.37 7.1 -3.68 s -4.32 2.25 -4.36 1.71 S 29.75 29.08 29.75 29.08 Z" stroke-linecap="round" />
</g>
<g transform="matrix(3.13 0 0 3.13 187.69 200.18)" id="Layer_6"  >
<path style="stroke: none; stroke-width: 1; stroke-dasharray: none; stroke-linecap: butt; stroke-dashoffset: 0; stroke-linejoin: miter; stroke-miterlimit: 4; fill: rgb(157,203,244); fill-rule: nonzero; opacity: 1;"  transform=" translate(-28.06, -32.06)" d="M 43.65 50 c -0.77 0 -4.23 0.47 -8.4 0.9 c -6.32 0.65 -14.27 1.23 -17.06 0 c -3.86 -1.7 -5.46 0.5 -5.55 -9.46 c 0 -0.75 0 -1.57 0 -2.47 c 0 -1.53 0.06 -3.29 0.12 -5.31 c 0.12 -3.89 0 -7.13 -0.12 -9.82 c -0.31 -7 -0.62 -10.23 3.38 -11.11 l 0.09 0 c 0.21 -0.05 0.42 -0.08 0.65 -0.12 h 0.11 a 25.15 25.15 0 0 1 4.81 0 c 1 0.07 2 0.16 3.23 0.29 A 53.85 53.85 0 0 0 25.22 24 A 5.12 5.12 0 0 0 20.85 29 V 35 A 5.14 5.14 0 0 0 26 40.1 h 4.74 A 23.5 23.5 0 0 0 43.65 50 Z" stroke-linecap="round" />
</g>
<g transform="matrix(3.13 0 0 3.13 186.19 210.9)" id="Layer_6"  >
<path style="stroke: none; stroke-width: 1; stroke-dasharray: none; stroke-linecap: butt; stroke-dashoffset: 0; stroke-linejoin: miter; stroke-miterlimit: 4; fill: rgb(56,154,214); fill-rule: nonzero; opacity: 1;"  transform=" translate(-27.58, -35.49)" d="M 23.19 24.48 S 13.13 28.74 13.08 39.84 s 27.46 6.72 29 -1.5 c 0 0 -3.16 1.4 -11 1.4 s -8.76 -1.13 -9.81 -3 S 19.43 26.65 23.19 24.48 Z" stroke-linecap="round" />
</g>
<g transform="matrix(3.13 0 0 3.13 198.61 199.05)" id="Layer_6"  >
<path style="stroke: rgb(42,80,129); stroke-width: 2; stroke-dasharray: none; stroke-linecap: round; stroke-dashoffset: 0; stroke-linejoin: round; stroke-miterlimit: 4; fill: none; fill-rule: nonzero; opacity: 1;"  transform=" translate(-31.55, -31.69)" d="M 50.47 17.15 V 46.23 a 4.64 4.64 0 0 1 -4.62 4.63 H 17.26 a 4.64 4.64 0 0 1 -4.62 -4.62 V 17.15 a 4.64 4.64 0 0 1 4.62 -4.62 H 45.85" stroke-linecap="round" />
</g>
<g transform="matrix(3.13 0 0 3.13 257.88 143.19)" id="Layer_6"  >
<circle style="stroke: none; stroke-width: 1; stroke-dasharray: none; stroke-linecap: butt; stroke-dashoffset: 0; stroke-linejoin: miter; stroke-miterlimit: 4; fill: rgb(42,80,129); fill-rule: nonzero; opacity: 1;"  cx="0" cy="0" r="1" />
</g>
<g transform="matrix(3.13 0 0 3.13 180.61 200.16)" id="Layer_6"  >
<path style="stroke: rgb(42,80,129); stroke-width: 2; stroke-dasharray: none; stroke-linecap: round; stroke-dashoffset: 0; stroke-linejoin: round; stroke-miterlimit: 4; fill: none; fill-rule: nonzero; opacity: 1;"  transform=" translate(-25.8, -32.05)" d="M 25.22 24 A 5.12 5.12 0 0 0 20.85 29 V 35 A 5.14 5.14 0 0 0 26 40.1 h 4.74" stroke-linecap="round" />
</g>
<g transform="matrix(3.13 0 0 3.13 199.5 174.8)" id="Layer_6"  >
<path style="stroke: rgb(42,80,129); stroke-width: 2; stroke-dasharray: none; stroke-linecap: round; stroke-dashoffset: 0; stroke-linejoin: round; stroke-miterlimit: 4; fill: none; fill-rule: nonzero; opacity: 1;"  transform=" translate(-31.84, -23.93)" d="M 38.43 23.9 H 26 a 3.67 3.67 0 0 0 -0.75 0.07" stroke-linecap="round" />
</g>
<g transform="matrix(3.13 0 0 3.13 216.03 202.61)" id="Layer_6"  >
<path style="stroke: rgb(42,80,129); stroke-width: 2; stroke-dasharray: none; stroke-linecap: round; stroke-dashoffset: 0; stroke-linejoin: round; stroke-miterlimit: 4; fill: none; fill-rule: nonzero; opacity: 1;"  transform=" translate(-37.13, -32.84)" d="M 30.71 40.1 h 7.72 A 5.14 5.14 0 0 0 43.55 35 V 29 a 5.12 5.12 0 0 0 -1.32 -3.43" stroke-linecap="round" />
</g>
<g transform="matrix(3.13 0 0 3.13 202.41 200.02)" id="Layer_6"  >
<polyline style="stroke: rgb(42,80,129); stroke-width: 2; stroke-dasharray: none; stroke-linecap: round; stroke-dashoffset: 0; stroke-linejoin: round; stroke-miterlimit: 4; fill: none; fill-rule: nonzero; opacity: 1;"  points="0,-1.75 3.02,-0.01 0,1.73 -3.02,3.48 -3.02,-0.01 -3.02,-3.49 " />
</g>
</svg>